<svg
  xmlns="http://www.w3.org/2000/svg" viewBox="0 0 678.94 203.32">
  <defs>
    <style>.cls-1{fill:#368DF3;}</style>
  </defs>
  <title>资源 2</title>
  <g id="图层_2" data-name="图层 2">
    <g id="图层_1-2" data-name="图层 1">
      <path class="cls-1" d="M98,0h54.78V121.73q0,33.54-17.57,54.64A71.94,71.94,0,0,1,109.5,195.7a75.75,75.75,0,0,1-32,7.18q-32.67,0-55.08-22T0,127Q0,96.1,22.27,73.54T75,51q4.83,0,14.65.88v60.35q-6.74-5.28-13.48-5.28a19.65,19.65,0,0,0-14.57,6.23,20.67,20.67,0,0,0-6.08,15,19.54,19.54,0,0,0,6.3,14.58,20.94,20.94,0,0,0,15.08,6.08q21.1,0,21.1-29.15Z"/>
      <path class="cls-1" d="M491.91,27.21l47.47,27.35L478.62,160q-16.74,29.07-42.5,38.57a71.88,71.88,0,0,1-31.93,3.92,75.76,75.76,0,0,1-31.32-9.76q-28.31-16.31-36.76-46.53t7.49-57.89q15.42-26.79,46-35.22t57,6.78q4.18,2.4,12.25,8.07l-30.12,52.29q-3.21-7.93-9.05-11.29a19.62,19.62,0,0,0-15.74-1.88,20.74,20.74,0,0,0-12.76,10,19.57,19.57,0,0,0-1.82,15.78,21,21,0,0,0,10,12.8q18.29,10.51,32.83-14.73Z"/>
      <path class="cls-1" d="M243.67,50.84a76.24,76.24,0,1,0,76.24,76.24A76.24,76.24,0,0,0,243.67,50.84ZM224.16,168.27l-19.33,2.13a4.07,4.07,0,0,1-4.49-4.49l2.15-19.34,47.06-47,21.68,21.68Zm60.47-60.48-9.57,9.58L253.38,95.69,263,86.11a8.14,8.14,0,0,1,11.5,0l10.17,10.18A8.12,8.12,0,0,1,284.63,107.79Z"/>
      <path class="cls-1" d="M602.44,49.88a76.5,76.5,0,1,0,76.5,76.5A76.5,76.5,0,0,0,602.44,49.88Zm37.28,87.67-15.3-21.87L596,149.88a21.07,21.07,0,1,1,4-19.46L629.2,95.28l21,29.67Z"/>
    </g>
  </g>
</svg>