<?xml version="1.0" encoding="utf-8"?>
<!-- Generator: Adobe Illustrator 21.0.0, SVG Export Plug-In . SVG Version: 6.00 Build 0)  -->
<svg version="1.1" id="图层_1" xmlns="http://www.w3.org/2000/svg" xmlns:xlink="http://www.w3.org/1999/xlink" x="0px" y="0px"
	 viewBox="0 0 695.3 233.8" style="enable-background:new 0 0 695.3 233.8;" xml:space="preserve">
<style type="text/css">
	.st0{fill:#368DF3;}
</style>
<title>资源 3</title>
<g id="图层_1-2">
	<path class="st0" d="M182.9,23.7L226,48.6L145.4,190c-11.2,19.4-25.3,32.2-42.5,38.6c-10.2,3.7-21.1,5.1-31.9,4
		c-11-0.9-21.7-4.3-31.3-9.8c-18.9-10.9-31.1-26.4-36.8-46.5s-3.1-39.4,7.5-57.9c10.3-17.9,25.6-29.6,46-35.2
		c20.4-5.6,39.4-3.4,57,6.8c2.8,1.6,6.9,4.3,12.3,8.1l-30.2,52.3c-2.1-5.3-5.1-9.1-9-11.3c-4.8-2.8-10.5-3.5-15.8-1.9
		c-5.4,1.5-10,5.1-12.8,10c-2.8,4.8-3.5,10.5-1.8,15.8c1.5,5.4,5.1,10,10,12.8c12.2,7,23.2,2.1,32.9-14.8L182.9,23.7z"/>
	<path class="st0" d="M587.9,87.3c-39.2,17.3-56.7,63.5-38.3,102.5c17.3,36.7,60.9,53.7,98.4,38.2c39.8-16.5,58.1-62.4,40.8-101.6
		c0,0,0,0,0,0C671.7,87.8,626.5,70.3,587.9,87.3z M665.3,141.4l-22.8-13.2l-18.8,61.5c-3.5,11.5-16,17.9-27.5,13.8
		c-10.1-3.6-15.9-14.5-13.3-24.9c2.9-11.9,15.1-18.7,26.7-15.2c4,1.2,7.6,3.6,10.2,6.8l19.1-61.6l31,17.9L665.3,141.4z"/>
	<path class="st0" d="M465.8,0h54.8v152.4c0,22.4-5.9,40.6-17.6,54.6c-7,8.3-15.8,14.9-25.7,19.3c-10,4.7-20.9,7.2-32,7.2
		c-21.8,0-40.1-7.3-55.1-22c-14.9-14.7-22.4-32.6-22.4-53.9c0-20.6,7.4-38.4,22.3-53.5c14.8-15,32.4-22.6,52.7-22.5
		c3.2,0,8.1,0.3,14.6,0.9v60.3c-4.5-3.5-9-5.3-13.5-5.3c-5.5-0.1-10.8,2.2-14.6,6.2c-4,4-6.2,9.4-6.1,15c-0.1,5.5,2.2,10.8,6.3,14.6
		c4,4,9.4,6.2,15.1,6.1c14.1,0,21.1-9.7,21.1-29.2L465.8,0z"/>
	<path class="st0" d="M240.7,87.9c-38.9,17.6-55.8,63.9-37.2,102.6c17.6,36.4,61.2,52.9,98.5,37c39.5-16.8,57.3-62.8,39.6-101.7l0,0
		C324.2,87.5,279.1,70.5,240.7,87.9z M263.5,202.1l-18.1,6.8c-1.1,0.4-2.3,0.4-3.3-0.1c-1.3-0.7-2-1.8-2.2-3.1l-2.7-19.3l33.9-57.2
		l26.4,15.6L263.5,202.1z M307.2,128.5l-6.9,11.7l-26.4-15.6l6.9-11.6c2.3-3.9,7.3-5.1,11.1-2.9c0,0,0,0,0,0l12.4,7.3
		C308.2,119.7,309.4,124.6,307.2,128.5z"/>
</g>
<path class="st0" d="M127,5"/>
<path class="st0" d="M550.9,170.4"/>
<line class="st0" x1="587.7" y1="162" x2="606.7" y2="100.7"/>
<path class="st0" d="M465.8,23.9"/>
</svg>
